<?xml version="1.0" encoding="utf-8"?>
<!-- Generator: Adobe Illustrator 26.3.1, SVG Export Plug-In . SVG Version: 6.00 Build 0)  -->
<svg version="1.1" id="permalink_cache67" focusable="false"
	 xmlns="http://www.w3.org/2000/svg" xmlns:xlink="http://www.w3.org/1999/xlink" x="0px" y="0px" viewBox="0 0 24 24"
	 style="enable-background:new 0 0 24 24;" xml:space="preserve">
<style type="text/css">
	.st0{fill:#53738C;}
</style>
<path class="st0" d="M10.6,13.4c0.4,0.4,0.4,1,0,1.4s-1,0.4-1.4,0c-2-1.9-2-5.1,0-7.1l0,0l3.5-3.5c1.9-1.9,5.1-1.9,7.1,0
	s1.9,5.1,0,7.1l-1.5,1.5c0-0.8-0.1-1.6-0.4-2.4l0.5-0.5c1.2-1.2,1.2-3.1,0-4.2c-1.2-1.2-3.1-1.2-4.2,0l-3.5,3.5
	C9.4,10.3,9.4,12.2,10.6,13.4 M13.4,9.2c0.4-0.4,1-0.4,1.4,0c2,1.9,2,5.1,0,7.1l0,0l-3.5,3.5c-1.9,1.9-5.1,1.9-7.1,0s-1.9-5.1,0-7.1
	l1.5-1.5c0,0.8,0.1,1.6,0.4,2.4l-0.5,0.5c-1.2,1.2-1.2,3.1,0,4.2c1.2,1.2,3.1,1.2,4.2,0l3.5-3.5c1.2-1.2,1.2-3.1,0-4.2
	C13,10.2,13,9.6,13.4,9.2z"/>
</svg>
